<?xml version="1.0" standalone="no"?>
<!DOCTYPE svg PUBLIC "-//W3C//DTD SVG 20010904//EN"
 "http://www.w3.org/TR/2001/REC-SVG-20010904/DTD/svg10.dtd">
<svg version="1.0" xmlns="http://www.w3.org/2000/svg"
 width="380.000000pt" height="389.000000pt" viewBox="0 0 380.000000 389.000000"
 preserveAspectRatio="xMidYMid meet">
<metadata>
Created by potrace 1.16, written by Peter Selinger 2001-2019
</metadata>
<g transform="translate(0.000000,389.000000) scale(0.100000,-0.100000)"
fill="#000000" stroke="none">
<path d="M2440 3884 c-14 -2 -68 -11 -120 -20 -441 -70 -1051 -320 -1474 -603
-55 -36 -106 -70 -115 -76 -24 -16 -34 -24 -66 -51 -16 -14 -41 -33 -55 -42
-55 -37 -305 -281 -350 -342 -14 -19 -33 -42 -42 -52 -10 -10 -18 -21 -18 -24
0 -3 -15 -24 -33 -47 -29 -37 -115 -201 -121 -231 -2 -6 -8 -31 -16 -56 -30
-104 -29 -250 2 -350 15 -50 108 -244 118 -248 13 -5 80 -100 80 -113 0 -5 4
-8 9 -4 5 3 12 -3 15 -13 7 -22 127 -144 246 -252 45 -41 92 -85 103 -97 11
-12 23 -20 28 -18 4 3 17 -7 28 -21 12 -15 21 -23 21 -18 0 5 11 -2 25 -16 13
-14 35 -33 47 -42 63 -48 105 -80 122 -95 11 -8 56 -42 100 -74 45 -32 92 -68
106 -79 14 -11 28 -20 33 -20 4 0 7 -7 7 -15 0 -8 6 -15 13 -15 7 0 27 -12 44
-27 17 -16 48 -41 69 -58 21 -16 50 -41 64 -55 15 -14 42 -39 61 -56 19 -17
46 -44 60 -60 56 -62 289 -277 289 -266 0 4 8 -5 18 -21 10 -15 22 -24 25 -20
4 3 7 -1 7 -10 0 -9 11 -19 25 -23 14 -3 25 -9 25 -13 0 -4 13 -15 30 -24 16
-10 35 -23 42 -30 13 -13 82 -55 154 -93 33 -17 107 -44 169 -60 66 -17 139
-25 228 -25 59 0 111 3 116 5 4 3 25 7 47 10 63 9 98 16 119 25 41 18 84 33
87 30 5 -6 202 103 239 132 20 16 42 29 49 29 6 0 8 5 5 10 -3 6 -2 10 3 10 9
0 101 91 161 159 16 18 37 48 46 67 9 19 20 34 24 34 11 0 163 306 161 325 0
3 11 27 24 54 14 27 27 60 30 74 2 14 9 35 16 46 6 12 8 21 4 21 -3 0 -2 6 3
13 14 16 54 136 56 162 0 11 5 26 10 33 5 6 7 12 4 12 -4 0 1 19 9 43 9 23 22
74 30 112 22 108 25 118 30 127 3 5 8 25 10 46 3 20 7 44 9 52 7 24 34 181 40
235 23 211 27 430 10 525 -3 14 -7 50 -10 80 -10 97 -71 378 -86 397 -6 7 -8
17 -5 22 4 5 2 12 -3 15 -4 3 -12 20 -16 38 -4 18 -9 35 -10 38 -1 3 -5 14 -9
25 -4 11 -12 29 -17 40 -6 11 -11 30 -12 43 0 12 -5 22 -10 22 -4 0 -5 5 -2
10 3 6 1 10 -4 10 -6 0 -11 5 -11 11 0 28 -135 286 -164 314 -6 6 -20 26 -30
45 -11 19 -30 44 -43 56 -13 12 -23 24 -23 27 0 10 -50 58 -105 102 -27 22
-52 42 -55 46 -9 10 -81 51 -130 75 -111 53 -182 66 -385 69 -104 2 -201 1
-215 -1z m-360 -1419 c47 -25 126 -68 175 -94 50 -27 155 -82 235 -123 263
-136 432 -230 423 -238 -10 -9 -443 -270 -448 -270 -3 0 -649 -380 -732 -432
l-33 -20 0 686 0 686 148 -75 c81 -41 185 -95 232 -120z"/>
</g>
</svg>
